<svg id="Layer_1" data-name="Layer 1" xmlns="http://www.w3.org/2000/svg" viewBox="0 0 50 50"><defs><style>.cls-1,.cls-2{fill:none;stroke:#000;stroke-linecap:round;stroke-linejoin:round;}.cls-1{stroke-width:2px;}.cls-2{stroke-width:1.99px;}</style></defs><title>black</title><path class="cls-1" d="M20,25V39H12a2,2,0,0,1-2-2V18"/><path class="cls-1" d="M20,21V14a2,2,0,0,0-2-2H12a2,2,0,0,0-2,2"/><path class="cls-1" d="M20,21h8a2,2,0,0,1,2,2V39H20V21"/><path class="cls-1" d="M30,30h8a2,2,0,0,1,2,2v5a2,2,0,0,1-2,2H30a0,0,0,0,1,0,0V30A0,0,0,0,1,30,30Z"/><line class="cls-2" x1="30.29" y1="32.79" x2="36.5" y2="39"/><line class="cls-2" x1="34.25" y1="30.25" x2="40" y2="36"/><line class="cls-2" x1="40" y1="21" x2="30" y2="12"/><line class="cls-1" x1="36" y1="21" x2="40" y2="21"/><line class="cls-1" x1="40" y1="17" x2="40" y2="21"/></svg>