<svg id="Layer_1" data-name="Layer 1" xmlns="http://www.w3.org/2000/svg" viewBox="0 0 50 50"><defs><style>.cls-1{fill:none;stroke:#000;stroke-linecap:round;stroke-linejoin:round;stroke-width:2px;}</style></defs><title>black</title><path class="cls-1" d="M10,17V39.07A2,2,0,0,0,12,41H30a2,2,0,0,0,2-1.9V37"/><path class="cls-1" d="M31,12h3a2.05,2.05,0,0,1,2,2V35a2.05,2.05,0,0,1-2,2H16a2.05,2.05,0,0,1-2-2V14a2.05,2.05,0,0,1,2-2H26"/><path class="cls-1" d="M30,25V11a5.17,5.17,0,0,0-5-5h0a5.17,5.17,0,0,0-5,5"/><path class="cls-1" d="M30,25.12A2.79,2.79,0,0,1,27,28a2.79,2.79,0,0,1-3-2.88V16"/></svg>