<svg id="Layer_1" data-name="Layer 1" xmlns="http://www.w3.org/2000/svg" viewBox="0 0 50 50"><defs><style>.cls-1,.cls-2{fill:none;stroke:#000;stroke-linecap:round;stroke-linejoin:round;}.cls-1{stroke-width:2px;}.cls-2{stroke-width:2.03px;}</style></defs><title>black</title><path class="cls-1" d="M23.75,6C8.44,6.06,8.63,23.19,8,29h7.5"/><path class="cls-1" d="M24,6C39.31,6.06,39.5,23.73,40,29l-5.12,0"/><line class="cls-1" x1="19" y1="32" x2="19" y2="37"/><line class="cls-1" x1="29" y1="32" x2="29" y2="37"/><path class="cls-1" d="M18,20H15v4.5a9,9,0,0,0,18,0V20H23"/><line class="cls-1" x1="23" y1="28" x2="25" y2="28"/><line class="cls-1" x1="18.5" y1="20" x2="21" y2="13"/><line class="cls-1" x1="33" y1="41.5" x2="36.5" y2="33.5"/><path class="cls-2" d="M15.5,41.5l-3.5-8H11.08A6,6,0,0,0,5,39.5c3.08,3.31,35,3.35,38,0a6,6,0,0,0-6.08-6"/></svg>