<svg id="Layer_1" data-name="Layer 1" xmlns="http://www.w3.org/2000/svg" viewBox="0 0 50 50"><defs><style>.cls-1{fill:none;stroke:#000;stroke-linecap:round;stroke-linejoin:round;stroke-width:2px;}</style></defs><title>black</title><path class="cls-1" d="M19,40H12a2,2,0,0,1-2-2V25"/><line class="cls-1" x1="41" y1="15" x2="26" y2="15"/><circle cx="40.5" cy="20" r="1.5"/><line class="cls-1" x1="27" y1="20" x2="36" y2="20"/><circle cx="27.5" cy="25" r="1.5"/><line class="cls-1" x1="41" y1="25" x2="32" y2="25"/><circle cx="40.5" cy="30" r="1.5"/><line class="cls-1" x1="27" y1="30" x2="36" y2="30"/><line class="cls-1" x1="16.5" y1="35" x2="16.5" y2="30"/><line class="cls-1" x1="41" y1="40" x2="23" y2="40"/><line class="cls-1" x1="23" y1="25" x2="10" y2="25"/><line class="cls-1" x1="23" y1="35" x2="41" y2="35"/><path class="cls-1" d="M10,21a6.5,6.5,0,0,1,13,.5V30"/></svg>