<svg id="Layer_1" data-name="Layer 1" xmlns="http://www.w3.org/2000/svg" viewBox="0 0 50 50"><defs><style>.cls-1,.cls-2{fill:none;stroke:#000;stroke-linecap:round;stroke-linejoin:round;}.cls-1{stroke-width:2px;}.cls-2{stroke-width:2px;}</style></defs><title>black</title><line class="cls-1" x1="14.63" y1="31" x2="5" y2="31"/><path class="cls-1" d="M7,27a2.28,2.28,0,0,1,2-2h5.63"/><path class="cls-1" d="M44,27a2.33,2.33,0,0,0-2-2H36"/><path class="cls-1" d="M40,21a2.33,2.33,0,0,0-2-2H32"/><path class="cls-1" d="M11,21a2.33,2.33,0,0,1,2-2h5.84"/><path class="cls-1" d="M15,15a2.33,2.33,0,0,1,2-2H34a2.33,2.33,0,0,1,2,2"/><path class="cls-1" d="M33.91,35a11,11,0,0,1-18.3-12,5.53,5.53,0,0,1,.3-0.5"/><path class="cls-1" d="M18.84,19a11.65,11.65,0,0,1,3.45-1.59A11.47,11.47,0,0,1,25.35,17a11.24,11.24,0,0,1,3,.41,11,11,0,0,1,8,10.59A11.26,11.26,0,0,1,36,31H46"/><path class="cls-2" d="M26.51,28H30a4.5,4.5,0,1,1-1.5-3.35"/></svg>