<svg id="Layer_1" data-name="Layer 1" xmlns="http://www.w3.org/2000/svg" viewBox="0 0 50 50"><defs><style>.cls-1{fill:none;stroke:#000;stroke-linecap:round;stroke-linejoin:round;stroke-width:2px;}</style></defs><title>black</title><line class="cls-1" x1="7" y1="39" x2="43" y2="39"/><line class="cls-1" x1="39" y1="19.22" x2="39" y2="32"/><line class="cls-1" x1="34" y1="19.22" x2="34" y2="36"/><line class="cls-1" x1="16" y1="19" x2="16" y2="36"/><line class="cls-1" x1="11" y1="32" x2="11" y2="19"/><line class="cls-1" x1="40" y1="36" x2="10" y2="36"/><path class="cls-1" d="M11,19H41.43a1.05,1.05,0,0,0,.44-2L26,9.25a2.16,2.16,0,0,0-2,0L8.12,17a1.05,1.05,0,0,0,.44,2H11"/><path class="cls-1" d="M28,35V26a3.19,3.19,0,0,0-3-3h0a3,3,0,0,0-3,3v6"/></svg>