<svg id="Layer_1" data-name="Layer 1" xmlns="http://www.w3.org/2000/svg" viewBox="0 0 50 50"><defs><style>.cls-1{fill:none;stroke:#000;stroke-linecap:round;stroke-linejoin:round;stroke-width:2px;}</style></defs><title>black</title><line class="cls-1" x1="36" y1="37" x2="36" y2="31"/><line class="cls-1" x1="36" y1="22" x2="36" y2="16"/><path class="cls-1" d="M43,35a2.09,2.09,0,0,1-2,2H11a2.33,2.33,0,0,1-2-2V16"/><path class="cls-1" d="M9,21V18a2,2,0,0,1,2-2H41a2,2,0,0,1,2,2V31"/><path class="cls-1" d="M9,17V14a2,2,0,0,1,2-2H36"/><path class="cls-1" d="M42.75,22H29c-6,0-6,9,0,9H43"/><circle cx="30" cy="26.5" r="1.5"/></svg>