<svg id="Layer_1" data-name="Layer 1" xmlns="http://www.w3.org/2000/svg" viewBox="0 0 50 50"><defs><style>.cls-1{fill:none;stroke:#000;stroke-linecap:round;stroke-linejoin:round;stroke-width:2px;}</style></defs><title>black</title><line class="cls-1" x1="30" y1="39" x2="30" y2="17.19"/><path class="cls-1" d="M33,39H16a1.88,1.88,0,0,1-2-2V17.19"/><path class="cls-1" d="M36,17V37c0,0.87-.59,2-1.5,2H33"/><rect class="cls-1" x="16" y="29" width="8" height="4" transform="translate(51 11) rotate(90)"/><line class="cls-1" x1="39" y1="17" x2="30" y2="17"/><line class="cls-1" x1="30" y1="17" x2="7" y2="17"/><path class="cls-1" d="M10,23H9A2.34,2.34,0,0,1,7,21V17"/><path class="cls-1" d="M43,14v7A2.38,2.38,0,0,1,41,23H40"/><path class="cls-1" d="M7,13a2.33,2.33,0,0,1,2-2H41A2.28,2.28,0,0,1,43,13V14"/></svg>