<svg id="Layer_1" data-name="Layer 1" xmlns="http://www.w3.org/2000/svg" viewBox="0 0 50 50"><defs><style>.cls-1,.cls-2{fill:none;stroke:#000;stroke-linecap:round;stroke-linejoin:round;}.cls-1{stroke-width:2px;}.cls-2{stroke-width:2px;}</style></defs><title>black</title><path class="cls-1" d="M11.27,30.18a15.5,15.5,0,0,0,29.6-8.12V22"/><path class="cls-1" d="M10.11,25.94h0q0-.26-0.06-0.51a15.5,15.5,0,0,1,28.87-9.15c0.21,0.47.58,1.24,0.74,1.73"/><path class="cls-2" d="M20,18h5c4,0,4,5,0,5H22"/><path class="cls-2" d="M20,30h7.47c5.11,0,5.11-6,0-7H22"/><line class="cls-2" x1="22" y1="15" x2="22" y2="33"/><line class="cls-2" x1="25" y1="15" x2="25" y2="17"/><line class="cls-2" x1="25" y1="30" x2="25" y2="33"/><line class="cls-2" x1="15.23" y1="30" x2="11.21" y2="30"/><line class="cls-2" x1="39.46" y1="18" x2="35.25" y2="18"/></svg>