<svg id="Layer_1" data-name="Layer 1" xmlns="http://www.w3.org/2000/svg" viewBox="0 0 50 50"><defs><style>.cls-1{fill:none;stroke:#000;stroke-linecap:round;stroke-linejoin:round;stroke-width:2px;}</style></defs><title>black</title><path class="cls-1" d="M22,28h5a1.5,1.5,0,0,1,0,3H24"/><path class="cls-1" d="M22,35h5a2,2,0,1,0,0-4H24"/><line class="cls-1" x1="24" y1="26" x2="24" y2="37"/><line class="cls-1" x1="22" y1="17" x2="28" y2="17"/><path class="cls-1" d="M23.5,8L32,9.63A8,8,0,0,1,28.5,14h-6a16,16,0,0,1-4-7"/><path class="cls-1" d="M36.73,41A12.69,12.69,0,0,0,39,33.63a13.5,13.5,0,0,0-27,0A12.79,12.79,0,0,0,14.27,41H36.73Z"/></svg>