<svg id="Layer_1" data-name="Layer 1" xmlns="http://www.w3.org/2000/svg" viewBox="0 0 50 50"><defs><style>.cls-1{fill:none;stroke:#000;stroke-linecap:round;stroke-linejoin:round;stroke-width:2px;}</style></defs><title>black</title><rect class="cls-1" x="22" y="38" width="7" height="4" rx="2" ry="2"/><path class="cls-1" d="M23,21.5a2.5,2.5,0,1,1,3.93,2.05c-0.4.28-1.47,0.84-1.43,3.45"/><path class="cls-1" d="M44,21a2.12,2.12,0,0,1,2,2v5a2,2,0,0,1-2,2H40.34"/><path class="cls-1" d="M7,21a2,2,0,0,0-2,2v5a2,2,0,0,0,2,2h3.58l-0.1-.54,0-.22A15.5,15.5,0,1,1,29.38,40.52"/><circle cx="25.5" cy="30.5" r="1.5"/></svg>