<svg id="Layer_1" data-name="Layer 1" xmlns="http://www.w3.org/2000/svg" viewBox="0 0 50 50"><defs><style>.cls-1{fill:none;stroke:#000;stroke-linecap:round;stroke-linejoin:round;stroke-width:2px;}</style></defs><title>black</title><path class="cls-1" d="M16.06,38.5A15.47,15.47,0,1,1,33,38.5"/><path class="cls-1" d="M23.5,41a25.74,25.74,0,0,0,.91-3.5,32.51,32.51,0,0,0,.52-7,26.75,26.75,0,0,0-.42-5"/><path class="cls-1" d="M27.5,22.08a4.23,4.23,0,0,0-.5-0.41A5.19,5.19,0,0,0,23,21c-7.25,2.88.71,10.13-3.67,19"/><path class="cls-1" d="M28.33,40c0.7-3.24,2-10,.91-14.5"/><path class="cls-1" d="M16,29c1.5,3.69.77,6.25,0,9.5"/><path class="cls-1" d="M33.5,31.5c2.13-10.21-3.8-14.92-9-15-4.71-.07-9.15,4-9,8.5"/></svg>