<svg id="Layer_1" data-name="Layer 1" xmlns="http://www.w3.org/2000/svg" viewBox="0 0 50 50"><defs><style>.cls-1{fill:none;stroke:#000;stroke-linecap:round;stroke-linejoin:round;stroke-width:2px;}</style></defs><title>black</title><path class="cls-1" d="M40,28V38a2.5,2.5,0,0,1-2,2H14a1.91,1.91,0,0,1-2-2V26"/><path class="cls-1" d="M12,22V14a2.2,2.2,0,0,1,2-2H38a2,2,0,0,1,2,2V24"/><line class="cls-1" x1="26" y1="16" x2="26" y2="36"/><line class="cls-1" x1="12" y1="26" x2="26" y2="26"/><line class="cls-1" x1="19" y1="17" x2="19" y2="21"/><line class="cls-1" x1="21" y1="19" x2="17" y2="19"/><line class="cls-1" x1="21" y1="33" x2="17" y2="33"/><line class="cls-1" x1="35" y1="25" x2="31" y2="25"/><line class="cls-1" x1="35" y1="28" x2="31" y2="28"/></svg>