<svg id="Layer_1" data-name="Layer 1" xmlns="http://www.w3.org/2000/svg" viewBox="0 0 50 50"><defs><style>.cls-1{fill:none;stroke:#000;stroke-linecap:round;stroke-linejoin:round;stroke-width:2px;}</style></defs><title>black</title><line class="cls-1" x1="13.52" y1="30" x2="9.66" y2="30"/><line class="cls-1" x1="38.78" y1="20" x2="34.52" y2="20"/><path class="cls-1" d="M9.66,30A15.5,15.5,0,0,0,40,25.5c0-.28,0-0.76,0-1"/><path class="cls-1" d="M9,25.5H9Q9,25.24,9,25A15.5,15.5,0,0,1,38.8,19.52a2.22,2.22,0,0,1,.1.48"/><path class="cls-1" d="M28.52,20c-5.71-4.09-8.09.42-7.7,2.61,0.34,2,3,2.59,4.13,2.75C32.8,26.49,28.84,35.91,19.5,30"/><line class="cls-1" x1="24.5" y1="16.5" x2="24.5" y2="18.35"/><line class="cls-1" x1="24.5" y1="31.9" x2="24.5" y2="34"/></svg>