<svg id="Layer_1" data-name="Layer 1" xmlns="http://www.w3.org/2000/svg" viewBox="0 0 50 50"><defs><style>.cls-1,.cls-2,.cls-3,.cls-4{fill:none;stroke:#000;stroke-linecap:round;stroke-linejoin:round;}.cls-1{stroke-width:2.03px;}.cls-2{stroke-width:2px;}.cls-3{stroke-width:2px;}.cls-4{stroke-width:2px;}</style></defs><title>black</title><path class="cls-1" d="M37.92,33.5a6,6,0,0,1,6.08,6c-3,3.35-34.92,3.31-38,0a6,6,0,0,1,6.08-6h0.08"/><path class="cls-2" d="M35,24h0a1.43,1.43,0,0,0,1-1.58V20a1.12,1.12,0,0,0-1-1.41V14"/><path class="cls-2" d="M15,16v2.59A1.12,1.12,0,0,0,14,20v2a2,2,0,0,0,1,2h0"/><path class="cls-2" d="M13,10v1c0,4.14,4.26,7.5,8.6,7.5A7.79,7.79,0,0,0,28.5,15H35V13a2,2,0,0,0-2-2H29.5a8.71,8.71,0,0,0-2-5H13"/><path class="cls-2" d="M15,24v3.5a10.4,10.4,0,0,0,10,10,10.4,10.4,0,0,0,10-10V24l-5,3-3-2H23l-3,2Z"/><line class="cls-3" x1="24" y1="29" x2="26" y2="29"/><line class="cls-4" x1="25" y1="38" x2="25" y2="42"/></svg>