<svg id="Layer_1" data-name="Layer 1" xmlns="http://www.w3.org/2000/svg" viewBox="0 0 50 50"><defs><style>.cls-1{fill:none;stroke:#000;stroke-linecap:round;stroke-linejoin:round;stroke-width:2px;}</style></defs><title>black</title><line class="cls-1" x1="26" y1="36" x2="26" y2="42"/><line class="cls-1" x1="19" y1="20" x2="25" y2="20"/><line class="cls-1" x1="19" y1="16" x2="25" y2="16"/><line class="cls-1" x1="23" y1="42" x2="29" y2="42"/><path class="cls-1" d="M38,24a12,12,0,0,1-24,0"/><path class="cls-1" d="M19,16V15a7.22,7.22,0,0,1,7.25-7H26.13A6.89,6.89,0,0,1,33,15v9a6.79,6.79,0,0,1-6.75,7H26.12A7.11,7.11,0,0,1,19,24V20"/></svg>