<svg id="Layer_1" data-name="Layer 1" xmlns="http://www.w3.org/2000/svg" viewBox="0 0 50 50"><defs><style>.cls-1,.cls-2{fill:none;stroke:#000;stroke-linejoin:round;stroke-width:2px;}.cls-1{stroke-linecap:round;}</style></defs><title>black</title><line class="cls-1" x1="35" y1="14" x2="35" y2="22"/><line class="cls-1" x1="35" y1="26" x2="35" y2="34"/><line class="cls-2" x1="20" y1="34" x2="20" y2="40"/><path class="cls-1" d="M42,16.5V20a2.07,2.07,0,0,1-2.06,2H13.06A2.39,2.39,0,0,1,11,20h0"/><path class="cls-1" d="M11,16a2.39,2.39,0,0,1,2.06-2H39.94A2.11,2.11,0,0,1,42,16v4"/><path class="cls-1" d="M42,28.5V32a2.11,2.11,0,0,1-2.06,2H13.06A2.39,2.39,0,0,1,11,32h0"/><path class="cls-1" d="M11,28a2.39,2.39,0,0,1,2.06-2H39.94A2,2,0,0,1,42,28v4"/><circle cx="15" cy="18" r="1.5" transform="translate(-6.99 9.91) rotate(-30)"/><circle cx="15" cy="30" r="1.5" transform="translate(-12.99 11.52) rotate(-30)"/><line class="cls-1" x1="12" y1="40" x2="41" y2="40"/></svg>