<svg id="Layer_1" data-name="Layer 1" xmlns="http://www.w3.org/2000/svg" viewBox="0 0 50 50"><defs><style>.cls-1,.cls-2,.cls-3{fill:none;stroke:#000;stroke-linecap:round;stroke-linejoin:round;}.cls-1{stroke-width:2.03px;}.cls-2{stroke-width:2px;}.cls-3{stroke-width:2px;}</style></defs><title>black</title><path class="cls-1" d="M38.86,32.57A6,6,0,0,1,44,38.5c-1.31,1.45-8,2.26-15.41,2.46-2.37.06-4.82,0.06-7.19,0C14,40.75,7.33,39.93,6,38.5a6,6,0,0,1,5.14-5.93"/><line class="cls-2" x1="24" y1="26" x2="26" y2="26"/><line class="cls-3" x1="25" y1="37" x2="25" y2="41"/><path class="cls-3" d="M15,12v5.09a1.29,1.29,0,0,0-1,1.31V20.5a1.38,1.38,0,0,0,1,1.41V23c0,5,4.51,9,10,9s10-4,10-9V22.09a1.42,1.42,0,0,0,1-1.59v-2a1.12,1.12,0,0,0-1-1.41V13"/><path class="cls-3" d="M35,17H27c-6,0-12.92-4-14-10H31.5C34,7,35,8.57,35,11v6Z"/><polyline class="cls-3" points="21 41 15 32.5 18.5 30.5"/><polyline class="cls-3" points="29 41 35 32.5 31.5 30.5"/></svg>