<svg id="Layer_1" data-name="Layer 1" xmlns="http://www.w3.org/2000/svg" viewBox="0 0 50 50"><defs><style>.cls-1,.cls-2{fill:none;stroke:#000;stroke-linecap:round;stroke-linejoin:round;}.cls-1{stroke-width:2px;}.cls-2{stroke-width:2.1px;}</style></defs><title>black</title><circle cx="25.01" cy="41.2" r="1.37" transform="translate(-17.25 18.03) rotate(-30)"/><circle cx="12.63" cy="36.7" r="1.37" transform="translate(-16.66 11.23) rotate(-30)"/><polyline class="cls-1" points="30 29.93 30 36.93 33 36.93"/><circle cx="37.63" cy="36.63" r="1.37" transform="translate(-12.91 50.9) rotate(-60)"/><path class="cls-2" d="M15.73,30l-1.1,0A6.51,6.51,0,0,1,8,23.58a6.51,6.51,0,0,1,6.48-6.38,10.51,10.51,0,0,1,19.08-1.95c0.27,0,.54,0,0.81,0A7.53,7.53,0,0,1,42,22.58a7.47,7.47,0,0,1-6.36,7.26L34.3,30"/><path class="cls-2" d="M26.88,22.58a7.53,7.53,0,0,1,7.67-7.38"/><polyline class="cls-1" points="25 37 25 30 25.01 30 20 30 20 37 17 37"/></svg>