<svg id="Layer_1" data-name="Layer 1" xmlns="http://www.w3.org/2000/svg" viewBox="0 0 50 50"><defs><style>.cls-1{fill:none;stroke:#000;stroke-linecap:round;stroke-linejoin:round;stroke-width:2px;}</style></defs><title>black</title><path class="cls-1" d="M9,16a2,2,0,0,1,2-2H39a2,2,0,0,1,2,2V37a2,2,0,0,1-2,2H11a2,2,0,0,1-2-2V20"/><line class="cls-1" x1="41" y1="20" x2="9" y2="20"/><line class="cls-1" x1="37" y1="31" x2="13" y2="31"/><line class="cls-1" x1="24" y1="34" x2="13" y2="34"/><line class="cls-1" x1="16" y1="12" x2="16" y2="16"/><line class="cls-1" x1="33" y1="12" x2="33" y2="16"/><circle cx="13.5" cy="25.5" r="1.5"/><circle cx="29.5" cy="25.5" r="1.5"/><circle cx="20.5" cy="25.5" r="1.5"/><circle cx="36.5" cy="25.5" r="1.5"/></svg>