<svg id="Layer_1" data-name="Layer 1" xmlns="http://www.w3.org/2000/svg" viewBox="0 0 50 50"><defs><style>.cls-1{fill:none;stroke:#000;stroke-linecap:round;stroke-linejoin:round;stroke-width:2px;}</style></defs><title>black</title><line class="cls-1" x1="12" y1="27" x2="7" y2="27"/><line class="cls-1" x1="43" y1="27" x2="38" y2="27"/><path class="cls-1" d="M43,16V33a2.38,2.38,0,0,1-2,2H9a2.38,2.38,0,0,1-2-2V19"/><line class="cls-1" x1="43" y1="19" x2="7" y2="19"/><path class="cls-1" d="M7,15a2.33,2.33,0,0,1,2-2H41A2.28,2.28,0,0,1,43,15V19"/><path class="cls-1" d="M20.67,29.08A3.53,3.53,0,0,1,19,29.5a2.5,2.5,0,0,1,0-5,3.53,3.53,0,0,1,1.67.42"/><polyline class="cls-1" points="23 24.5 25.5 29.5 28 24.5"/><polyline class="cls-1" points="30 24.5 32.5 29.5 35 24.5"/></svg>