<svg id="Layer_1" data-name="Layer 1" xmlns="http://www.w3.org/2000/svg" viewBox="0 0 50 50"><defs><style>.cls-1{fill:none;stroke:#000;stroke-linecap:round;stroke-linejoin:round;stroke-width:2px;}</style></defs><title>black</title><path class="cls-1" d="M31.33,22V36h8a2,2,0,0,0,2-2V15"/><path class="cls-1" d="M31.33,18V11a2,2,0,0,1,2-2h6a2,2,0,0,1,2,2"/><path class="cls-1" d="M31.33,18h-8a2,2,0,0,0-2,2V36h10V18"/><path class="cls-1" d="M11.33,27h8a2,2,0,0,1,2,2v5a2,2,0,0,1-2,2h-8a0,0,0,0,1,0,0V27A0,0,0,0,1,11.33,27Z" transform="translate(32.67 63) rotate(180)"/><line class="cls-1" x1="21.33" y1="22" x2="31.33" y2="32"/><line class="cls-1" x1="21.33" y1="28.5" x2="28.33" y2="35.5"/><line class="cls-1" x1="23.83" y1="18" x2="30.83" y2="25"/></svg>