<svg id="Layer_1" data-name="Layer 1" xmlns="http://www.w3.org/2000/svg" viewBox="0 0 50 50"><defs><style>.cls-1{fill:none;stroke:#000;stroke-linecap:round;stroke-linejoin:round;stroke-width:2px;}</style></defs><title>black</title><line class="cls-1" x1="39.5" y1="23.17" x2="42.33" y2="26"/><line class="cls-1" x1="39.5" y1="28.83" x2="42.33" y2="26"/><polyline class="cls-1" points="22 20.84 20.5 18.25 16 10.5"/><line class="cls-1" x1="28" y1="20.83" x2="34" y2="10.5"/><line class="cls-1" x1="8.83" y1="26" x2="14.83" y2="26"/><line class="cls-1" x1="41.33" y1="26" x2="31" y2="26"/><line class="cls-1" x1="30.14" y1="11.36" x2="34.05" y2="10.5"/><line class="cls-1" x1="34.91" y1="14.41" x2="34.05" y2="10.5"/><line class="cls-1" x1="19.91" y1="11.36" x2="16.01" y2="10.5"/><line class="cls-1" x1="15.15" y1="14.41" x2="16.01" y2="10.5"/><polyline class="cls-1" points="28.06 31.17 28.25 31.5 28.25 31.5 28.25 31.5 34.06 41.5"/><line class="cls-1" x1="22" y1="31.26" x2="16.06" y2="41.5"/><line class="cls-1" x1="19.91" y1="40.64" x2="16.01" y2="41.5"/><line class="cls-1" x1="15.15" y1="37.59" x2="16.01" y2="41.5"/><line class="cls-1" x1="30.18" y1="40.64" x2="34.09" y2="41.5"/><line class="cls-1" x1="34.95" y1="37.59" x2="34.09" y2="41.5"/><line class="cls-1" x1="9.83" y1="28.83" x2="7" y2="26"/><line class="cls-1" x1="9.83" y1="23.17" x2="7" y2="26"/><path class="cls-1" d="M28,31.2A6,6,0,1,1,31,26"/></svg>