<svg id="Layer_1" data-name="Layer 1" xmlns="http://www.w3.org/2000/svg" viewBox="0 0 50 50"><defs><style>.cls-1{fill:none;stroke:#000;stroke-linecap:round;stroke-linejoin:round;stroke-width:2px;}</style></defs><title>black</title><path class="cls-1" d="M42,14a2.33,2.33,0,0,0-2-2H10a2.33,2.33,0,0,0-2,2V35"/><line class="cls-1" x1="42" y1="37" x2="42" y2="18"/><path class="cls-1" d="M42,37a2.33,2.33,0,0,1-2,2H8"/><path class="cls-1" d="M19.67,21.58A3.53,3.53,0,0,1,18,22a2.5,2.5,0,0,1,0-5,3.53,3.53,0,0,1,1.67.42"/><circle class="cls-1" cx="25" cy="19.5" r="2.5"/><line class="cls-1" x1="12" y1="17" x2="12" y2="22"/><polyline class="cls-1" points="8 35 18.5 26.75 24.73 32.15 36.5 21.25 42 27"/></svg>