<svg id="Layer_1" data-name="Layer 1" xmlns="http://www.w3.org/2000/svg" viewBox="0 0 50 50"><defs><style>.cls-1,.cls-2,.cls-3,.cls-4,.cls-5{fill:none;stroke:#000;stroke-linecap:round;stroke-linejoin:round;}.cls-1{stroke-width:2.22px;}.cls-2{stroke-width:2px;}.cls-3{stroke-width:2px;}.cls-4{stroke-width:1.93px;}.cls-5{stroke-width:1.93px;}</style></defs><title>black</title><line class="cls-1" x1="17.5" y1="34.5" x2="12.5" y2="34.5"/><path class="cls-2" d="M21.08,37.43a4.06,4.06,0,0,1-3,1.07,4.5,4.5,0,0,1,0-9,4.21,4.21,0,0,1,3,1.26"/><line class="cls-3" x1="8.5" y1="16" x2="19.5" y2="16"/><line class="cls-3" x1="11" y1="13.34" x2="8.17" y2="16.17"/><line class="cls-3" x1="11" y1="19" x2="8.17" y2="16.17"/><line class="cls-3" x1="40" y1="36.86" x2="28" y2="36.86"/><line class="cls-3" x1="37.17" y1="39.68" x2="40" y2="36.86"/><line class="cls-3" x1="37.17" y1="34.03" x2="40" y2="36.86"/><path class="cls-3" d="M31.83,15.74c-3.13-2.24-4.47-.07-4.25,1.13s1.66,1.42,2.27,1.51c4.31,0.62,1.44,5.7-2.84,2.53"/><line class="cls-3" x1="29.5" y1="13.5" x2="29.5" y2="14.66"/><line class="cls-3" x1="29.49" y1="21.91" x2="29.5" y2="23.47"/><circle class="cls-4" cx="29.5" cy="18.5" r="10"/><path class="cls-5" d="M27.88,32.42a10,10,0,1,1-10.93-8.37"/></svg>