<svg id="Layer_1" data-name="Layer 1" xmlns="http://www.w3.org/2000/svg" viewBox="0 0 50 50"><defs><style>.cls-1{fill:none;stroke:#000;stroke-linecap:round;stroke-linejoin:round;stroke-width:2px;}</style></defs><title>black</title><path class="cls-1" d="M26.87,15.12c-3.12-2.23-4.44-.07-4.23,1.13s1.66,1.42,2.26,1.5c4.29,0.61,1.43,5.67-2.82,2.52"/><line class="cls-1" x1="24.54" y1="12.86" x2="24.54" y2="14.04"/><line class="cls-1" x1="24.54" y1="21.26" x2="24.54" y2="22.82"/><path class="cls-1" d="M17.58,23.85A9.46,9.46,0,1,1,29.52,25.5"/><line class="cls-1" x1="12" y1="25" x2="12" y2="39"/><path class="cls-1" d="M8,39a2.34,2.34,0,0,1-2-2V27a1.92,1.92,0,0,1,2-2h4"/><path class="cls-1" d="M20.43,30.89h9.79l9-3.3a2,2,0,0,1,1.66,3.62L24.27,39,12.06,36.36"/><line class="cls-1" x1="12.06" y1="26.91" x2="25.41" y2="26.91"/></svg>