<svg id="Layer_1" data-name="Layer 1" xmlns="http://www.w3.org/2000/svg" viewBox="0 0 50 50"><defs><style>.cls-1{fill:none;stroke:#000;stroke-linecap:round;stroke-linejoin:round;stroke-width:2px;}</style></defs><title>black</title><path class="cls-1" d="M33,8.45A11,11,0,0,1,25,27"/><path class="cls-1" d="M20.41,26A11,11,0,0,1,29.59,6"/><path class="cls-1" d="M22,13h4a1.5,1.5,0,0,1,0,3H24"/><path class="cls-1" d="M22,20h5a2,2,0,1,0,0-4H24"/><line class="cls-1" x1="23" y1="11" x2="23" y2="22"/><line class="cls-1" x1="16" y1="41" x2="34" y2="41"/><line class="cls-1" x1="21" y1="38" x2="29" y2="38"/><line class="cls-1" x1="25" y1="27" x2="25" y2="37"/><path class="cls-1" d="M23,38H17.5c-5.19-1-6.5-4.62-8-8H16Z"/><path class="cls-1" d="M27,38h5c5.19-1,6.5-4.62,8-8H34Z"/></svg>