<svg id="Layer_1" data-name="Layer 1" xmlns="http://www.w3.org/2000/svg" viewBox="0 0 50 50"><defs><style>.cls-1{fill:none;stroke:#000;stroke-linecap:round;stroke-linejoin:round;stroke-width:2px;}</style></defs><title>black</title><line class="cls-1" x1="27.5" y1="37.93" x2="21.5" y2="37.93"/><path class="cls-1" d="M9.5,33.93L7,19.38a2,2,0,0,1,2-2.45H39a2,2,0,0,1,2,2.45L38.5,33.93"/><path class="cls-1" d="M16,17l8.58-8a2,2,0,0,1,2.83,0L36,17"/><line class="cls-1" x1="11.51" y1="16.95" x2="21" y2="8.01"/><circle class="cls-1" cx="16.5" cy="38" r="4"/><circle class="cls-1" cx="31.5" cy="38" r="4"/><circle cx="31.5" cy="38" r="1.5"/><circle cx="16.5" cy="38" r="1.5"/><path class="cls-1" d="M20,22.93h5a1.5,1.5,0,0,1,0,3H22"/><path class="cls-1" d="M20,29.93h5a2,2,0,1,0,0-4H22"/><line class="cls-1" x1="22" y1="20.93" x2="22" y2="31.93"/></svg>