<svg id="Layer_1" data-name="Layer 1" xmlns="http://www.w3.org/2000/svg" viewBox="0 0 50 50"><defs><style>.cls-1{fill:none;stroke:#000;stroke-linecap:round;stroke-linejoin:round;stroke-width:2px;}</style></defs><title>black</title><path id="XRP" class="cls-1" d="M8.19,28a6.42,6.42,0,0,0,2.88,3.25,6.75,6.75,0,0,0,9-2.42l0.13-.28a2.79,2.79,0,0,1,3.53-.86,2.71,2.71,0,0,1,1,3.7,6.36,6.36,0,0,0,2.46,8.76,6.64,6.64,0,0,0,5.29.51"/><path id="XRP-2" data-name="XRP" class="cls-1" d="M36,38l0.15-.25A6.33,6.33,0,0,0,33.64,29a6.62,6.62,0,0,0-3.27-.83h0a2.69,2.69,0,1,1-.13-5.38h0a6.62,6.62,0,0,0,3.31-.9,6.33,6.33,0,0,0,2.28-8.78,6.62,6.62,0,0,0-9-2.23,6.33,6.33,0,0,0-2.28,8.78,2.66,2.66,0,0,1-1,3.68,2.43,2.43,0,0,1-3.29-.74l-0.12-.15a13.2,13.2,0,0,0-2.59-2.36,6.71,6.71,0,0,0-9,2.42A6.48,6.48,0,0,0,8,24"/></svg>