<svg id="Layer_1" data-name="Layer 1" xmlns="http://www.w3.org/2000/svg" viewBox="0 0 50 50"><defs><style>.cls-1{fill:none;stroke:#000;stroke-linecap:round;stroke-linejoin:round;stroke-width:2px;}</style></defs><title>black</title><path class="cls-1" d="M22,35.31a10.5,10.5,0,0,1,0-20.62"/><path class="cls-1" d="M26,14.69a10.5,10.5,0,0,1,0,20.62"/><path class="cls-1" d="M26.34,22.31c-3.13-2.24-4.47-.07-4.25,1.13s1.66,1.42,2.27,1.51c4.31,0.62,1.44,5.7-2.84,2.53"/><line class="cls-1" x1="24" y1="20.05" x2="24" y2="21.23"/><line class="cls-1" x1="24" y1="28.48" x2="24" y2="30.05"/><line class="cls-1" x1="34" y1="35" x2="38" y2="35"/><line class="cls-1" x1="38" y1="39" x2="38" y2="35"/><path class="cls-1" d="M37.08,35.91q-0.48.57-1,1.11a17,17,0,0,1-29-14"/><line class="cls-1" x1="14" y1="15" x2="10" y2="15"/><line class="cls-1" x1="10" y1="11" x2="10" y2="15"/><path class="cls-1" d="M10.92,14.09q0.48-.57,1-1.11a17,17,0,0,1,29,14"/></svg>