<svg id="Layer_1" data-name="Layer 1" xmlns="http://www.w3.org/2000/svg" viewBox="0 0 100 100"><defs><style>.cls-1{fill:#d7ffe4;}.cls-2{fill:none;stroke:#347591;stroke-linecap:round;stroke-linejoin:round;stroke-width:4px;}</style></defs><title>colored</title><circle class="cls-1" cx="56" cy="44" r="35"/><path class="cls-2" d="M27.11,82A30.94,30.94,0,1,1,61,82"/><path class="cls-2" d="M42,87a51.48,51.48,0,0,0,1.82-7,65,65,0,0,0,1-14A53.51,53.51,0,0,0,44,56"/><path class="cls-2" d="M50,49.16a8.46,8.46,0,0,0-1-.82C47,47,44.44,46.41,41,47c-14.5,5.75,1.42,20.25-7.35,38"/><path class="cls-2" d="M51.65,85c1.4-6.48,4-19.91,1.82-29"/><path class="cls-2" d="M27,63c3,7.38,1.54,12.5.1,19"/><path class="cls-2" d="M62,68c4.25-20.42-7.6-29.84-18-30-9.42-.15-18.29,7.92-18,17"/></svg>