<svg id="Layer_1" data-name="Layer 1" xmlns="http://www.w3.org/2000/svg" viewBox="0 0 100 100"><defs><style>.cls-1{fill:#d7fdff;}.cls-2{fill:none;stroke:#347591;stroke-linecap:round;stroke-linejoin:round;stroke-width:4px;}</style></defs><title>colored</title><rect class="cls-1" x="17" y="18" width="76" height="54" rx="6" ry="6"/><line class="cls-2" x1="18" y1="64" x2="8" y2="64"/><line class="cls-2" x1="80" y1="64" x2="70" y2="64"/><path class="cls-2" d="M80,41V75.9c0,1.82-2.21,4.1-4,4.1H12c-1.79,0-4-2.28-4-4.1V48"/><line class="cls-2" x1="80" y1="48" x2="8" y2="48"/><path class="cls-2" d="M8,40a4.29,4.29,0,0,1,4-4H76.89C78.67,36,80,38.08,80,39.9V48"/><path class="cls-2" d="M35.33,68.17A7.05,7.05,0,0,1,32,69a5,5,0,0,1,0-10,7.05,7.05,0,0,1,3.33.83"/><polyline class="cls-2" points="40 59 45 69 50 59"/><polyline class="cls-2" points="54 59 59 69 64 59"/></svg>