<svg id="Layer_1" data-name="Layer 1" xmlns="http://www.w3.org/2000/svg" viewBox="0 0 100 100"><defs><style>.cls-1{fill:#d7ffe4;}.cls-2{fill:none;stroke:#347591;stroke-linecap:round;stroke-linejoin:round;stroke-width:4px;}</style></defs><title>colored</title><circle class="cls-1" cx="53" cy="44" r="35"/><line class="cls-2" x1="70.44" y1="44" x2="62.14" y2="44"/><path class="cls-2" d="M19,62H11.56l0.17,0.69A31,31,0,0,0,72.5,54c0-.55-0.06-1.52-0.09-2.07"/><path class="cls-2" d="M10.5,54h0q0-.52,0-1A31,31,0,0,1,70.1,42a11.21,11.21,0,0,1,.52,1.72"/><path class="cls-2" d="M49.64,44.09c-11.42-8.18-16.27-.26-15.5,4.13,0.69,3.9,6.07,5.19,8.27,5.5C58.1,56,50.19,74.81,31.5,63"/><line class="cls-2" x1="41" y1="36" x2="41" y2="40"/><line class="cls-2" x1="41" y1="67" x2="41" y2="71"/></svg>