<svg id="Layer_1" data-name="Layer 1" xmlns="http://www.w3.org/2000/svg" viewBox="0 0 100 100"><defs><style>.cls-1{fill:#d7fdff;}.cls-2{fill:none;stroke:#347591;stroke-linecap:round;stroke-linejoin:round;stroke-width:4px;}</style></defs><title>colored</title><rect class="cls-1" x="20" y="18" width="76" height="54" rx="6" ry="6"/><path class="cls-2" d="M73,32a3.77,3.77,0,0,0-4-4H9a4.11,4.11,0,0,0-4,4V75"/><line class="cls-2" x1="73" y1="78" x2="73" y2="40"/><path class="cls-2" d="M73,79a4.66,4.66,0,0,1-4,4H5"/><path class="cls-2" d="M28,47.17a7.05,7.05,0,0,1-3.33.83,5,5,0,1,1,0-10,7.05,7.05,0,0,1,3.33.83"/><circle class="cls-2" cx="38" cy="43" r="5"/><line class="cls-2" x1="13" y1="38" x2="13" y2="48"/><polyline class="cls-2" points="6 75 25 58 37.47 68.8 61 47 73 58"/></svg>