<svg id="Layer_1" data-name="Layer 1" xmlns="http://www.w3.org/2000/svg" viewBox="0 0 100 100"><defs><style>.cls-1{fill:#d7fdff;}.cls-2{fill:none;stroke:#347591;stroke-linecap:round;stroke-linejoin:round;stroke-width:4px;}.cls-3{fill:#347591;}</style></defs><title>colored</title><rect class="cls-1" x="30" y="10" width="64" height="64" rx="6" ry="6"/><path class="cls-2" d="M79,65V78a3.75,3.75,0,0,1-4,4H19a3.65,3.65,0,0,1-4-4V65"/><line class="cls-2" x1="32" y1="65" x2="15" y2="65"/><line class="cls-2" x1="54" y1="65" x2="40" y2="65"/><line class="cls-2" x1="79" y1="65" x2="62" y2="65"/><path class="cls-2" d="M15,57V39.9c0-2.29,1.2-3.9,4-3.9H75a3.7,3.7,0,0,1,4,4V57"/><line class="cls-2" x1="25" y1="36" x2="25" y2="74"/><line class="cls-2" x1="69" y1="36" x2="69" y2="74"/><circle class="cls-3" cx="47.5" cy="51" r="3" transform="translate(-19.14 30.58) rotate(-30)"/><path class="cls-2" d="M34.17,28a4,4,0,0,1,4-3.95h20a4,4,0,0,1,4,4"/></svg>