<svg id="Layer_1" data-name="Layer 1" xmlns="http://www.w3.org/2000/svg" viewBox="0 0 100 100"><defs><style>.cls-1{fill:#d7ffe4;}.cls-2{fill:none;stroke:#347591;stroke-linecap:round;stroke-linejoin:round;stroke-width:4px;}</style></defs><title>colored</title><circle class="cls-1" cx="59" cy="44" r="35"/><path class="cls-2" d="M56.3,36.54C50,32,47.37,36.39,47.8,38.8c0.38,2.14,3.33,2.85,4.54,3,8.61,1.23,2.87,11.4-5.67,5.06"/><line class="cls-2" x1="51.62" y1="32" x2="51.63" y2="34.37"/><line class="cls-2" x1="51.62" y1="48.87" x2="51.63" y2="52"/><path class="cls-2" d="M37.66,53.84a19,19,0,1,1,24,3.31"/><line class="cls-2" x1="25" y1="56" x2="25" y2="85"/><path class="cls-2" d="M17,85c-1.82,0-4-2.33-4-4.11V60c0-1.79.73-4.06,3.56-4H25"/><path class="cls-2" d="M42,69H61.66l18-6.63A4,4,0,0,1,83,69.63L49.71,85.3,25.17,80"/><line class="cls-2" x1="25" y1="60" x2="52" y2="60"/></svg>