<svg id="Layer_1" data-name="Layer 1" xmlns="http://www.w3.org/2000/svg" viewBox="0 0 100 100"><defs><style>.cls-1{fill:#d7ffe4;}.cls-2{fill:none;stroke:#347591;stroke-linecap:round;stroke-linejoin:round;stroke-width:4px;}.cls-3{fill:#347591;}</style></defs><title>colored</title><rect class="cls-1" x="19" y="18" width="76" height="54" rx="6" ry="6"/><path class="cls-2" d="M9,34a4,4,0,0,1,4-4H69a4,4,0,0,1,4,4V76a4,4,0,0,1-4,4H13a4,4,0,0,1-4-4V42"/><line class="cls-2" x1="73" y1="42" x2="9" y2="42"/><line class="cls-2" x1="64" y1="64" x2="18" y2="64"/><line class="cls-2" x1="40" y1="70" x2="18" y2="70"/><line class="cls-2" x1="24" y1="26" x2="24" y2="34"/><line class="cls-2" x1="58" y1="26" x2="58" y2="34"/><circle class="cls-3" cx="20.5" cy="53" r="3" transform="translate(-23.75 17.35) rotate(-30)"/><circle class="cls-3" cx="34.5" cy="53" r="3" transform="translate(-21.88 24.35) rotate(-30)"/><circle class="cls-3" cx="48.5" cy="53" r="3" transform="translate(-20 31.35) rotate(-30)"/><circle class="cls-3" cx="62.5" cy="53" r="3" transform="translate(-18.13 38.35) rotate(-30)"/></svg>