<svg id="Layer_1" data-name="Layer 1" xmlns="http://www.w3.org/2000/svg" viewBox="0 0 100 100"><defs><style>.cls-1{fill:#d7ffe4;}.cls-2{fill:none;stroke:#347591;stroke-linecap:round;stroke-linejoin:round;stroke-width:4px;}</style></defs><title>colored</title><circle class="cls-1" cx="57" cy="46" r="35"/><path class="cls-2" d="M40.5,76.62a21,21,0,0,1,0-41.24"/><path class="cls-2" d="M48.5,35.38a21,21,0,0,1,0,41.24"/><path class="cls-2" d="M49.17,50.63c-6.27-4.49-8.93-.14-8.51,2.27C41,55,44,55.74,45.2,55.92c8.61,1.23,2.87,11.4-5.67,5.06"/><line class="cls-2" x1="44.49" y1="46.09" x2="44.5" y2="48.46"/><line class="cls-2" x1="44.49" y1="62.96" x2="44.5" y2="66.09"/><line class="cls-2" x1="63" y1="77" x2="71" y2="77"/><line class="cls-2" x1="71" y1="85" x2="71" y2="77"/><path class="cls-2" d="M70.66,77.83q-1,1.14-2,2.21A34.1,34.1,0,0,1,10.71,52"/><line class="cls-2" x1="25" y1="35" x2="18" y2="35"/><line class="cls-2" x1="18" y1="27" x2="18" y2="35"/><path class="cls-2" d="M18.34,34.17q1-1.14,2-2.21A34.1,34.1,0,0,1,78.29,60"/></svg>