<svg id="Layer_1" data-name="Layer 1" xmlns="http://www.w3.org/2000/svg" viewBox="0 0 100 100"><defs><style>.cls-1{fill:#d7fdff;}.cls-2{fill:#347591;}.cls-3{fill:none;stroke:#347591;stroke-linecap:round;stroke-linejoin:round;stroke-width:4px;}</style></defs><title>colored</title><rect class="cls-1" x="19" y="20" width="76" height="54" rx="6" ry="6"/><circle class="cls-2" cx="19.05" cy="63.56" r="3" transform="translate(-29.23 18.04) rotate(-30)"/><line class="cls-3" x1="42" y1="50" x2="8" y2="50"/><line class="cls-3" x1="35" y1="73" x2="17" y2="73"/><path class="cls-3" d="M54,82H12a3.86,3.86,0,0,1-4-4V50"/><path class="cls-3" d="M8,42a4.34,4.34,0,0,1,4-4H41"/><path class="cls-3" d="M67,82c-10.09-5-24.7-21.91-26-43.77L67,24"/><line class="cls-3" x1="93" y1="38.23" x2="67" y2="24"/><path class="cls-3" d="M67,82c8.72-4.32,20.68-17.38,24.78-35.12"/><line class="cls-3" x1="66" y1="25" x2="66" y2="80"/></svg>