<svg id="Layer_1" data-name="Layer 1" xmlns="http://www.w3.org/2000/svg" viewBox="0 0 100 100"><defs><style>.cls-1{fill:#d7ffe4;}.cls-2{fill:none;stroke:#347591;stroke-linecap:round;stroke-linejoin:round;stroke-width:4px;}</style></defs><title>colored</title><rect class="cls-1" x="26" y="13" width="64" height="64" rx="6" ry="6"/><line class="cls-2" x1="55" y1="85" x2="55" y2="41"/><path class="cls-2" d="M61,85H26c-2.31.06-4-2.36-4-4.1V41"/><path class="cls-2" d="M66,41V80.9A4,4,0,0,1,62,85H60"/><rect class="cls-2" x="26" y="64" width="17" height="9" transform="translate(103 34) rotate(90)"/><line class="cls-2" x1="72" y1="41" x2="55" y2="41"/><line class="cls-2" x1="55" y1="41" x2="8" y2="41"/><path class="cls-2" d="M14,53H12a4.57,4.57,0,0,1-4-4V41"/><path class="cls-2" d="M80,34V48.9c0,1.82-2.21,4.1-4,4.1H74"/><path class="cls-2" d="M8,33a4.66,4.66,0,0,1,4-4H76c1.79,0,4,2.08,4,3.9V35"/></svg>