<svg id="Layer_1" data-name="Layer 1" xmlns="http://www.w3.org/2000/svg" viewBox="0 0 100 100"><defs><style>.cls-1{fill:#d7ffe4;}.cls-2{fill:none;stroke:#347591;stroke-linecap:round;stroke-linejoin:round;stroke-width:4px;}.cls-3{fill:#347591;}</style></defs><title>colored</title><circle class="cls-1" cx="63" cy="44" r="35"/><rect class="cls-2" x="37" y="80" width="14" height="8" rx="4" ry="4"/><path class="cls-2" d="M39.5,47a5,5,0,1,1,7.86,4.1c-0.81.57-2.95,1.67-2.86,6.9"/><circle class="cls-3" cx="44.5" cy="64.97" r="3" transform="translate(-26.52 30.95) rotate(-30)"/><path class="cls-2" d="M79,45a4,4,0,0,1,4,4V59c0,2.21-1.29,4-3.5,4H74"/><path class="cls-2" d="M9,45a4,4,0,0,0-4,4V59c0,2.21,2.29,4,4.5,4l6.09,0-0.22-.81A30,30,0,1,1,52,84.05"/></svg>