<svg id="Layer_1" data-name="Layer 1" xmlns="http://www.w3.org/2000/svg" viewBox="0 0 100 100"><defs><style>.cls-1{fill:#d7fdff;}.cls-2{fill:none;stroke:#347591;stroke-linecap:round;stroke-linejoin:round;stroke-width:4px;}.cls-3{fill:#347591;}</style></defs><title>colored</title><rect class="cls-1" x="24" y="14" width="64" height="64" rx="6" ry="6"/><line class="cls-2" x1="61" y1="31" x2="61" y2="47"/><line class="cls-2" x1="61" y1="55" x2="61" y2="71"/><line class="cls-2" x1="31" y1="71" x2="31" y2="82"/><path class="cls-2" d="M74,36v7a4.66,4.66,0,0,1-4,4H17.11C15.33,47,13,44.82,13,43h0"/><path class="cls-2" d="M13,35a4.26,4.26,0,0,1,4.11-4H70a4.66,4.66,0,0,1,4,4v8"/><path class="cls-2" d="M74,60v7a4.66,4.66,0,0,1-4,4H17.11C15.33,71,13,68.82,13,67h0"/><path class="cls-2" d="M13,59c0-1.82,2.33-4,4.11-4H70a4.66,4.66,0,0,1,4,4v8"/><circle class="cls-3" cx="21" cy="39" r="3" transform="translate(-16.69 15.73) rotate(-30)"/><circle class="cls-3" cx="21" cy="63" r="3" transform="translate(-28.69 18.94) rotate(-30)"/><line class="cls-2" x1="14" y1="83" x2="72" y2="83"/></svg>