<svg id="Layer_1" data-name="Layer 1" xmlns="http://www.w3.org/2000/svg" viewBox="0 0 100 100"><defs><style>.cls-1{fill:#d7ffe4;}.cls-2,.cls-3{fill:none;stroke:#347591;stroke-linecap:round;stroke-linejoin:round;}.cls-2{stroke-width:3.67px;}.cls-3{stroke-width:4px;}.cls-4{fill:#347591;}</style></defs><title>colored</title><rect class="cls-1" x="23" y="17" width="64" height="64" rx="6" ry="6"/><path class="cls-2" d="M61,46.35a16,16,0,1,1-29.95,0"/><path class="cls-3" d="M76,59A35.16,35.16,0,0,0,62,45.87,35,35,0,0,0,16,59"/><path class="cls-3" d="M16,59a35,35,0,0,0,60,0"/><path class="cls-3" d="M36,89H20a4,4,0,0,1-4-4V75"/><path class="cls-3" d="M76,75V85a4,4,0,0,1-4,4H56"/><path class="cls-3" d="M56,29H72a4,4,0,0,1,4,4V43"/><path class="cls-3" d="M16,43V33a4,4,0,0,1,4-4H36"/><circle class="cls-4" cx="38.17" cy="52.8" r="3" transform="translate(-21.29 26.16) rotate(-30)"/></svg>