<svg id="Layer_1" data-name="Layer 1" xmlns="http://www.w3.org/2000/svg" viewBox="0 0 104 100"><defs><style>.cls-1{fill:#d7fdff;}.cls-2{fill:none;stroke:#347591;stroke-linecap:round;stroke-linejoin:round;stroke-width:4px;}</style></defs><title>colored</title><rect class="cls-1" x="23" y="17" width="76" height="54" rx="6" ry="6"/><line class="cls-2" x1="25" y1="66" x2="5" y2="66"/><path class="cls-2" d="M9.5,58c0-1.82,2.71-4,4.5-4H26"/><path class="cls-2" d="M85.5,58c0-1.82-1.71-4-3.5-4H69.42"/><path class="cls-2" d="M77.5,46c0-1.82-1.71-4-3.5-4H61"/><path class="cls-2" d="M17.5,46c0-1.82,2.71-4,4.5-4H35.35"/><path class="cls-2" d="M68.5,34c0-1.82-1.71-4-3.5-4H43"/><path class="cls-2" d="M26.5,34c0-1.82,2.71-4,4.5-4H44"/><path class="cls-2" d="M65,74A22,22,0,0,1,28.4,50a11.07,11.07,0,0,1,.6-1"/><path class="cls-2" d="M35.35,42A22,22,0,0,1,70,60a22.52,22.52,0,0,1-.83,6H90"/><path class="cls-2" d="M50,60h7a9,9,0,1,1-3-6.71"/></svg>