<svg id="Layer_1" data-name="Layer 1" xmlns="http://www.w3.org/2000/svg" viewBox="0 0 100 100"><defs><style>.cls-1{fill:#d7ffe4;}.cls-2{fill:none;stroke:#347591;stroke-linecap:round;stroke-linejoin:round;stroke-width:4px;}</style></defs><title>colored</title><rect class="cls-1" x="26" y="15" width="64" height="64" rx="6" ry="6"/><path class="cls-2" d="M73,63V83c0,1.66-2.34,4-4,4H21a4.11,4.11,0,0,1-4-4V59"/><path class="cls-2" d="M17,51V35a4.41,4.41,0,0,1,4-4H69a3.93,3.93,0,0,1,4,4V55"/><line class="cls-2" x1="44" y1="39" x2="44" y2="79"/><line class="cls-2" x1="17" y1="59" x2="44" y2="59"/><line class="cls-2" x1="31" y1="41" x2="31" y2="49"/><line class="cls-2" x1="35" y1="45" x2="27" y2="45"/><line class="cls-2" x1="34" y1="73" x2="26" y2="73"/><line class="cls-2" x1="62" y1="56" x2="54" y2="56"/><line class="cls-2" x1="62" y1="62" x2="54" y2="62"/></svg>