<svg id="Layer_1" data-name="Layer 1" xmlns="http://www.w3.org/2000/svg" viewBox="0 0 100 100"><defs><style>.cls-1{fill:#d7ffe4;}.cls-2{fill:#347591;}.cls-3{fill:none;stroke:#347591;stroke-linecap:round;stroke-linejoin:round;stroke-width:4px;}</style></defs><title>colored</title><rect class="cls-1" x="17" y="22" width="76" height="54" rx="6" ry="6"/><circle class="cls-2" cx="19.39" cy="65.56" r="3" transform="translate(-30.18 18.48) rotate(-30)"/><line class="cls-3" x1="79" y1="52" x2="8" y2="52"/><line class="cls-3" x1="35" y1="75" x2="17" y2="75"/><path class="cls-3" d="M80,45V80a4.66,4.66,0,0,1-4,4H12a4.31,4.31,0,0,1-4-4V52"/><path class="cls-3" d="M8,44a4.66,4.66,0,0,1,4-4H76a4.66,4.66,0,0,1,4,4v2"/><rect class="cls-3" x="54" y="66" width="17" height="9"/></svg>