<svg id="Layer_1" data-name="Layer 1" xmlns="http://www.w3.org/2000/svg" viewBox="0 0 100 100"><defs><style>.cls-1{fill:#d7fdff;}.cls-2{fill:none;stroke:#347591;stroke-linecap:round;stroke-linejoin:round;stroke-width:4px;}</style></defs><title>colored</title><rect class="cls-1" x="26" y="17" width="64" height="64" rx="6" ry="6"/><path class="cls-2" d="M33,61V89H17a4,4,0,0,1-4-4V47"/><path class="cls-2" d="M33,56V39a4,4,0,0,0-4-4H17a4,4,0,0,0-4,4"/><path class="cls-2" d="M33,53H49a4,4,0,0,1,4,4V89H33V55"/><path class="cls-2" d="M53,71H69a4,4,0,0,1,4,4V85.38A3.62,3.62,0,0,1,69.38,89H53a0,0,0,0,1,0,0V71A0,0,0,0,1,53,71Z"/><line class="cls-2" x1="53.31" y1="76.52" x2="65.79" y2="89"/><line class="cls-2" x1="61.17" y1="71.38" x2="73" y2="83"/><line class="cls-2" x1="73" y1="53" x2="55" y2="35"/><line class="cls-2" x1="64.5" y1="53" x2="72.5" y2="53"/><line class="cls-2" x1="73" y1="45" x2="73" y2="53"/></svg>