<svg id="Layer_1" data-name="Layer 1" xmlns="http://www.w3.org/2000/svg" viewBox="0 0 100 100"><defs><style>.cls-1{fill:#d7fdff;}.cls-2{fill:none;stroke:#347591;stroke-linecap:round;stroke-linejoin:round;stroke-width:4px;}</style></defs><title>colored</title><circle class="cls-1" cx="52.5" cy="44" r="35"/><line class="cls-2" x1="38" y1="79" x2="38" y2="90"/><line class="cls-2" x1="23" y1="47" x2="35" y2="47"/><line class="cls-2" x1="23" y1="39" x2="35" y2="39"/><line class="cls-2" x1="32" y1="90" x2="44" y2="90"/><path class="cls-2" d="M23,39V38.5A14.5,14.5,0,0,1,37.5,24h1A14.5,14.5,0,0,1,53,38.5v17A14.5,14.5,0,0,1,38.5,70h-1A14.5,14.5,0,0,1,23,55.5V47"/><path class="cls-2" d="M62,55a24,24,0,0,1-48,0"/></svg>