<svg id="Layer_1" data-name="Layer 1" xmlns="http://www.w3.org/2000/svg" viewBox="0 0 100 100"><defs><style>.cls-1{fill:#d7fdff;}.cls-2{fill:none;stroke:#347591;stroke-linecap:round;stroke-linejoin:round;stroke-width:4px;}</style></defs><title>colored</title><rect class="cls-1" x="26" y="14" width="64" height="64" rx="6" ry="6"/><line class="cls-2" x1="22" y1="42" x2="22" y2="70"/><line class="cls-2" x1="62" y1="42" x2="62" y2="70"/><line class="cls-2" x1="16" y1="70" x2="16" y2="42"/><line class="cls-2" x1="68" y1="70" x2="68" y2="42"/><path class="cls-2" d="M24,26H21.16C18.86,26,16,27.79,16,30v4"/><path class="cls-2" d="M24,86H21.16C18.86,86,16,84.21,16,82V78"/><path class="cls-2" d="M68,79v3c0,2.21-.86,4-3.16,4H61"/><path class="cls-2" d="M68,34V30c0-2.21-.86-4-3.16-4H61"/><line class="cls-2" x1="52" y1="26" x2="32" y2="26"/><path class="cls-2" d="M16,34H27c3.45,0,5-2.69,5-6V26"/><path class="cls-2" d="M68,34H59c-3.45,0-7-2.69-7-6V27"/><line class="cls-2" x1="52" y1="86" x2="32" y2="86"/><line class="cls-2" x1="47" y1="78" x2="38" y2="78"/><line class="cls-2" x1="47" y1="34" x2="38" y2="34"/><path class="cls-2" d="M16,78H27c3.45,0,5,2.69,5,6v2"/><path class="cls-2" d="M68,78H59c-3.45,0-7,2.69-7,6v1"/><path class="cls-2" d="M47.54,50.57c-6.32-4.52-9-.14-8.57,2.29,0.38,2.16,3.35,2.87,4.57,3C52.22,57.14,47,67.43,38.4,61"/><line class="cls-2" x1="42" y1="45.46" x2="42" y2="48.33"/><line class="cls-2" x1="42" y1="63" x2="42" y2="66"/></svg>