<svg id="Layer_1" data-name="Layer 1" xmlns="http://www.w3.org/2000/svg" viewBox="0 0 100 100"><defs><style>.cls-1{fill:#d7ffe4;}.cls-2{fill:none;stroke:#347591;stroke-linecap:round;stroke-linejoin:round;stroke-width:4px;}.cls-3{fill:#347591;}</style></defs><title>colored</title><rect class="cls-1" x="18" y="16" width="76" height="54" rx="6" ry="6"/><line class="cls-2" x1="64" y1="78" x2="64" y2="68"/><line class="cls-2" x1="64" y1="46" x2="64" y2="36"/><path class="cls-2" d="M77,74a4.66,4.66,0,0,1-4,4H13c-1.79,0-4-1.8-4-3.62V41"/><path class="cls-2" d="M9,46V40.38C9,37.92,10.33,36,13,36H73c1.79,0,4,2.56,4,4.38V66.69"/><path class="cls-2" d="M9,42.5V32.38C9,30.56,10.33,28,13,28H64"/><path class="cls-2" d="M75,47H49c-13,0-13,20,0,20H77"/><circle class="cls-3" cx="50" cy="57.28" r="3" transform="translate(-21.94 32.67) rotate(-30)"/></svg>