<svg id="Layer_1" data-name="Layer 1" xmlns="http://www.w3.org/2000/svg" viewBox="0 0 100 100"><defs><style>.cls-1{fill:#d7ffe4;}.cls-2{fill:none;stroke:#347591;stroke-linecap:round;stroke-linejoin:round;stroke-width:4px;}</style></defs><title>colored</title><circle class="cls-1" cx="54" cy="46" r="35"/><path id="XRP" class="cls-2" d="M16.94,60A12.84,12.84,0,0,0,22.7,66.5C29,70,36.92,68.37,40.47,62.21L40.59,62A5.34,5.34,0,1,1,50,67,12.59,12.59,0,0,0,55,84.4a13.3,13.3,0,0,0,10.6,1"/><path id="XRP-2" data-name="XRP" class="cls-2" d="M72.5,80l0.31-.51a12.66,12.66,0,0,0-5-17.45,13.25,13.25,0,0,0-6.53-1.65h0a5.48,5.48,0,0,1-5.61-5.32A5.39,5.39,0,0,1,61,49.62h0a13.32,13.32,0,0,0,6.63-1.8,12.66,12.66,0,0,0,4.57-17.55A13.24,13.24,0,0,0,54.31,25.8a12.65,12.65,0,0,0-4.56,17.55,5.32,5.32,0,0,1-1.9,7.36C45.3,52.19,42,51,40.45,49c0,0-3-3.64-5.1-4.8A13.11,13.11,0,0,0,17.63,49a12.47,12.47,0,0,0-1.18,3"/></svg>