<svg id="Layer_1" data-name="Layer 1" xmlns="http://www.w3.org/2000/svg" viewBox="0 0 100 100"><defs><style>.cls-1{fill:#d7fdff;}.cls-2{fill:none;stroke:#347591;stroke-linecap:round;stroke-linejoin:round;stroke-width:4px;}.cls-3{fill:#347591;}</style></defs><title>colored</title><rect class="cls-1" x="25" y="16" width="64" height="64" rx="6" ry="6"/><line class="cls-2" x1="51.5" y1="80" x2="40" y2="80"/><path class="cls-3" d="M31.5,82.67a3,3,0,1,1,1.1-4.11A3,3,0,0,1,31.5,82.67Z"/><path class="cls-3" d="M61.5,82.67a3,3,0,1,1,1.1-4.11A3,3,0,0,1,61.5,82.67Z"/><path class="cls-2" d="M16,75L11.1,45.82A4,4,0,0,1,15,41H75a4,4,0,0,1,3.9,4.82L74,75"/><path class="cls-2" d="M29,40.88l17.16-16a4,4,0,0,1,5.65,0L69,40.88"/><line class="cls-2" x1="20.01" y1="40.88" x2="39" y2="23"/><ellipse class="cls-2" cx="30" cy="80.06" rx="8" ry="8.02"/><ellipse class="cls-2" cx="60" cy="80.06" rx="8" ry="8.02"/><path class="cls-2" d="M39,51h9c4,0,4,6,0,6H43"/><path class="cls-2" d="M39,65H50c5.44,0,5.41-7.94,0-8H43"/><line class="cls-2" x1="43" y1="48" x2="43" y2="68"/></svg>