<svg id="Layer_1" data-name="Layer 1" xmlns="http://www.w3.org/2000/svg" viewBox="0 0 100 100"><defs><style>.cls-1{fill:#d7ffe4;}.cls-2{fill:none;stroke:#347591;stroke-linecap:round;stroke-linejoin:round;stroke-width:4px;}</style></defs><title>colored</title><rect class="cls-1" x="22" y="17" width="64" height="64" rx="6" ry="6"/><path class="cls-2" d="M15,36V78.13A4,4,0,0,0,19,82H56a4.11,4.11,0,0,0,4-4V75.21"/><path class="cls-2" d="M57,25h6a4.11,4.11,0,0,1,4,4V71.13A4,4,0,0,1,63,75H27a4,4,0,0,1-4-3.87V28.87A4,4,0,0,1,27,25H48"/><path class="cls-2" d="M56,53V23.86c0-5-3.54-9.86-9.09-9.86H46.86c-5.54,0-10.36,4.87-10.36,9.86"/><path class="cls-2" d="M56,53a5.69,5.69,0,0,1-6,6,5.69,5.69,0,0,1-6-6V34"/></svg>