<svg id="Layer_1" data-name="Layer 1" xmlns="http://www.w3.org/2000/svg" viewBox="0 0 100 100"><defs><style>.cls-1{fill:#d7ffe4;}.cls-2{fill:#347591;}.cls-3{fill:none;stroke:#347591;stroke-linecap:round;stroke-linejoin:round;stroke-width:4px;}</style></defs><title>colored</title><circle class="cls-1" cx="60" cy="46" r="35"/><circle class="cls-2" cx="35.17" cy="46.8" r="3" transform="translate(-18.69 23.85) rotate(-30)"/><path class="cls-3" d="M25.82,36.2c0.2-4.11-1.87-9.71-5-13.2,6.46-.29,18.07,1,23.15,4"/><polyline class="cls-3" points="39 84 39 87 29 87 29 79.69"/><path class="cls-3" d="M39.13,84H54v3H64V80.19l1.09-.65"/><path class="cls-3" d="M18.71,64H13a2,2,0,0,1-2-2V50a2,2,0,0,1,2-2h6"/><path class="cls-3" d="M29,79.52A29.72,29.72,0,0,1,26.23,77a27.49,27.49,0,0,1-7.52-13"/><path class="cls-3" d="M44,27.09c1-.09,2.47-0.21,3.38-0.21A29.55,29.55,0,0,1,77,56.42c0,9.66-4.86,17.79-12,23.18"/><path class="cls-3" d="M19.22,47.62a29.62,29.62,0,0,1,12.47-16.2"/><line class="cls-3" x1="82" y1="57" x2="82" y2="52"/><path class="cls-3" d="M51,35.11A21.68,21.68,0,0,1,68.83,53"/></svg>